{"title":"Barbecue.2014.720p.BRRip.x264.AC3.HORiZON-ArtSubs","uid":13134271,"size":1642864356,"categoryP":"video","categoryS":"movies","magnet":"?xt=urn:btih:052695599deb77bb6135eca4d833f28892d8825c&amp;dn=Barbecue.2014.720p.BRRip.x264.AC3.HORiZON-ArtSubs&amp;tr=udp%3A%2F%2Ftracker.leechers-paradise.org%3A6969&amp;tr=udp%3A%2F%2Fzer0day.ch%3A1337&amp;tr=udp%3A%2F%2Fopen.demonii.com%3A1337&amp;tr=udp%3A%2F%2Ftracker.coppersurfer.tk%3A6969&amp;tr=udp%3A%2F%2Fexodus.desync.com%3A6969","seeders":2,"leechers":0,"uploader":"noriegaRJ","files":1,"time":1451879255,"description":"Title: Barbecue\r\n\r\nRelease: Barbecue.2014.720p.BRRip.x264.AC3.HORiZON-ArtSubs\r\n\r\n\r\nIMDB Link:                                                      \nhttp://www.imdb.com/title/tt3202120/\r\n\r\n\r\nPlot: On his 50th birthday, a man who's been watching his weight, health and temper all his life suffers a heart attack. He's been doing everything he was told he should do and it still didn't help. He decides to turn the page and let loose.\r\n\r\n\r\nENGLISH SUBTITLE IN MKV CONTAINER.\r\n\r\n\r\n\r\nGeneral\r\nComplete name                            : Barbecue.2014.720p.BRRip.x264.AC3.HORiZON-ArtSubs\r\nFormat                                   : Matroska\r\nFormat version                           : Version 2\r\nFile size                                : 1.53 GiB\r\nDuration                                 : 1h 37mn\r\nOverall bit rate                         : 2 245 Kbps\r\nWriting application                      : HandBrake 0.9.5\r\nWriting library                          : libmkv 0.6.4.1\r\n\r\nVideo\r\nID                                       : 1\r\nFormat                                   : AVC\r\nFormat/Info                              : Advanced Video Codec\r\nFormat profile                           :   \r\nFormat settings, CABAC                   : Yes\r\nFormat settings, ReFrames                : 4 frames\r\nCodec ID                                 : V_MPEG4/ISO/AVC\r\nDuration                                 : 1h 37mn\r\nBit rate                                 : 1 561 Kbps\r\nNominal bit rate                         : 1 650 Kbps\r\nWidth                                    : 1 280 pixels\r\nHeight                                   : 688 pixels\r\nDisplay aspect ratio                     : 1.85:1\r\nFrame rate mode                          : Constant\r\nFrame rate                               : 24.000 fps\r\nColor space                              : YUV\r\nChroma subsampling                       : 4:2:0\r\nBit depth                                : 8 bits\r\nScan type                                : Progressive\r\nBits/(Pixel*Frame)                       : 0.074\r\nStream size                              : 1.06 GiB (70%)\r\nWriting library                          : x264 core 112\r\nLanguage                                 : English\r\nDefault                                  : Yes\r\nForced                                   : No\r\nColor primaries                          : BT.709\r\nTransfer characteristics                 : BT.709\r\nMatrix coefficients                      : BT.709\r\n\r\nAudio\r\nID                                       : 2\r\nFormat                                   : AC-3\r\nFormat/Info                              : Audio Coding 3\r\nMode extension                           : CM (complete main)\r\nFormat settings, Endianness              : Big\r\nCodec ID                                 : A_AC3\r\nDuration                                 : 1h 37mn\r\nBit rate mode                            : Constant\r\nBit rate                                 : 640 Kbps\r\nChannel count                            : 6 channels\r\nChannel positions                        : Front: L C R, Side: L R, LFE\r\nSampling rate                            : 48.0 KHz\r\nBit depth                                : 16 bits\r\nCompression mode                         : Lossy\r\nStream size                              : 447 MiB (29%)\r\nLanguage                                 : French\r\nDefault                                  : Yes\r\nForced                                   : No\r\n\r\n\r\n\r\nThanks to those helping me seed. Leechers remember, the community depends on you. If nobody shares, the freebies go away. Remember, the only reason you can download this free movie is because others are generous enough to keep sharing it with you. If nobody shares, everybody loses, so even if its for an extra hour or two after you get it, remember, others want to see it too, and they can't without you.\r\n\r\n\r\nSEE MY OTHERS UPLOADS:                                                                              \nhttp://thepiratebay.se/user/noriegaRJ\r\n\r\nAND SEE THIS ANOTHERS UPLOADS FROM &quot;HORiZON-ArtSubs&quot;:                              \nhttp://thepiratebay.se/user/artsubs                              \nhttp://thepiratebay.se/user/lletaif","torrent":{"xt":"urn:btih:052695599deb77bb6135eca4d833f28892d8825c","amp;dn":"Barbecue.2014.720p.BRRip.x264.AC3.HORiZON-ArtSubs","amp;tr":["udp%3A%2F%2Ftracker.leechers-paradise.org%3A6969","udp%3A%2F%2Fzer0day.ch%3A1337","udp%3A%2F%2Fopen.demonii.com%3A1337","udp%3A%2F%2Ftracker.coppersurfer.tk%3A6969","udp%3A%2F%2Fexodus.desync.com%3A6969"],"infoHash":"052695599deb77bb6135eca4d833f28892d8825c","infoHashBuffer":{"type":"Buffer","data":[5,38,149,89,157,235,119,187,97,53,236,164,216,51,242,136,146,216,130,92]},"announce":[],"urlList":[]}}